{
    "asset" : {
        "generator" : "Khronos glTF Blender I/O v1.6.16",
        "version" : "2.0"
    },
    "scene" : 0,
    "scenes" : [
        {
            "name" : "Scene",
            "nodes" : [
                0
            ]
        }
    ],
    "nodes" : [
        {
            "mesh" : 0,
            "name" : "Body_Curvy"
        }
    ],
    "materials" : [
        {
            "doubleSided" : true,
            "name" : "Paint",
            "pbrMetallicRoughness" : {
                "baseColorFactor" : [
                    0.800000011920929,
                    0.800000011920929,
                    0.800000011920929,
                    1
                ],
                "metallicFactor" : 0,
                "roughnessFactor" : 0.5
            }
        },
        {
            "doubleSided" : true,
            "name" : "Window",
            "pbrMetallicRoughness" : {
                "baseColorFactor" : [
                    0.800000011920929,
                    0.800000011920929,
                    0.800000011920929,
                    1
                ],
                "metallicFactor" : 0,
                "roughnessFactor" : 0.5
            }
        }
    ],
    "meshes" : [
        {
            "name" : "Cube.002",
            "primitives" : [
                {
                    "attributes" : {
                        "POSITION" : 0,
                        "NORMAL" : 1,
                        "TEXCOORD_0" : 2,
                        "COLOR_0" : 3
                    },
                    "indices" : 4,
                    "material" : 0
                },
                {
                    "attributes" : {
                        "POSITION" : 5,
                        "NORMAL" : 6,
                        "TEXCOORD_0" : 7,
                        "COLOR_0" : 8
                    },
                    "indices" : 9,
                    "material" : 1
                }
            ]
        }
    ],
    "accessors" : [
        {
            "bufferView" : 0,
            "componentType" : 5126,
            "count" : 697,
            "max" : [
                0.550000011920929,
                0.9999999403953552,
                1.2000000476837158
            ],
            "min" : [
                -0.550000011920929,
                2.9802322387695312e-08,
                -1.2000000476837158
            ],
            "type" : "VEC3"
        },
        {
            "bufferView" : 1,
            "componentType" : 5126,
            "count" : 697,
            "type" : "VEC3"
        },
        {
            "bufferView" : 2,
            "componentType" : 5126,
            "count" : 697,
            "type" : "VEC2"
        },
        {
            "bufferView" : 3,
            "componentType" : 5123,
            "count" : 697,
            "normalized" : true,
            "type" : "VEC4"
        },
        {
            "bufferView" : 4,
            "componentType" : 5123,
            "count" : 1449,
            "type" : "SCALAR"
        },
        {
            "bufferView" : 5,
            "componentType" : 5126,
            "count" : 28,
            "max" : [
                0.5441654324531555,
                0.8449978232383728,
                0.6984531879425049
            ],
            "min" : [
                -0.5441654324531555,
                0.5287593007087708,
                -0.5923910140991211
            ],
            "type" : "VEC3"
        },
        {
            "bufferView" : 6,
            "componentType" : 5126,
            "count" : 28,
            "type" : "VEC3"
        },
        {
            "bufferView" : 7,
            "componentType" : 5126,
            "count" : 28,
            "type" : "VEC2"
        },
        {
            "bufferView" : 8,
            "componentType" : 5123,
            "count" : 28,
            "normalized" : true,
            "type" : "VEC4"
        },
        {
            "bufferView" : 9,
            "componentType" : 5123,
            "count" : 48,
            "type" : "SCALAR"
        }
    ],
    "bufferViews" : [
        {
            "buffer" : 0,
            "byteLength" : 8364,
            "byteOffset" : 0
        },
        {
            "buffer" : 0,
            "byteLength" : 8364,
            "byteOffset" : 8364
        },
        {
            "buffer" : 0,
            "byteLength" : 5576,
            "byteOffset" : 16728
        },
        {
            "buffer" : 0,
            "byteLength" : 5576,
            "byteOffset" : 22304
        },
        {
            "buffer" : 0,
            "byteLength" : 2898,
            "byteOffset" : 27880
        },
        {
            "buffer" : 0,
            "byteLength" : 336,
            "byteOffset" : 30780
        },
        {
            "buffer" : 0,
            "byteLength" : 336,
            "byteOffset" : 31116
        },
        {
            "buffer" : 0,
            "byteLength" : 224,
            "byteOffset" : 31452
        },
        {
            "buffer" : 0,
            "byteLength" : 224,
            "byteOffset" : 31676
        },
        {
            "buffer" : 0,
            "byteLength" : 96,
            "byteOffset" : 31900
        }
    ],
    "buffers" : [
        {
            "byteLength" : 31996,
            "uri" : "data:application/octet-stream;base64,"
        }
    ]
}
